Patient4_TMGait_0pt6_02_right_17_EMG.mot
version=1
nRows=37
nColumns=33
inDegrees=no
endheader
time	1LAddLong	2LGlutMax	3LGlutMed	4LIliopsoas	5LSemiMemb	6LBicFemLong	7LRecFem	8LVastMed	9LVastLat	10LGasMed	11LTibAnt	12lTibPost	13LPeroneusLong	14LSol	15LExtDigLong	16LFlexDigLong	17RAddLong	18RGlutMax	19RGlutMed	20RIliopsoas	21RSemiMemb	22RBicFemLong	23RRecFem	24RVastMed	25RVastLat	26RGasMed	27RTibAnt	28RTibPost	29RPeroneusLong	30RSol	31RExtDigLong	32RFlexDigLong
20.712	-0.011292	-0.023956	0.019531	-0.028839	0.00824	-0.031281	-0.10056	-0.023193	0.030212	-0.032959	-0.043182	0.01358	-0.09964	0.21393	0.25162	0.017853	-0.016022	-0.63355	-0.49255	0.054932	-0.29862	-0.089722	0.54184	-0.020599	-0.70267	0.018311	0.33707	-0.24353	-0.29785	-0.39505	-0.002747	-0.05188
20.713	-0.002289	0.041199	0.022736	-0.032043	0.005646	-0.036621	-0.25528	-0.00824	0.038147	-0.033875	0.052643	0.009613	-0.13916	0.068512	0.52368	0.02243	-0.043488	-0.6694	-0.70297	0.087128	-0.076141	-0.19714	0.60699	0.081787	-0.76355	0.036316	0.49667	0.17029	-0.14755	0.5481	0.005646	-0.046997
20.714	-0.006561	0.13214	0.032959	-0.033112	-0.002747	-0.026703	-0.32089	-0.002747	-0.017395	-0.009155	0.019226	0.016632	-0.12161	0.035706	0.2948	0.005035	-0.003662	-0.79224	-0.21393	-0.005035	-0.066376	-0.32044	0.63339	0.02243	-0.63431	0.001221	0.61645	0.088654	0.001373	0.63477	0.007782	-0.041199
20.715	-0.016632	0.21668	0.029755	-0.016174	-0.006104	-0.041199	-0.24521	0.003052	-0.027924	0.016479	0.121	0.012665	-0.084076	-0.11078	-0.19302	0.012665	-0.005951	-0.95001	-0.12131	-0.039215	0.050659	-0.21194	0.80673	0.059357	-0.44342	0.009613	0.914	0.076447	0.056	0.78964	-0.000305	-0.032043
20.716	-0.00885	0.26154	-0.010986	0.013428	-0.002747	-0.031586	-0.10193	0.009766	-0.015869	0.019379	0.20157	0.01297	-0.073242	-0.16998	-0.22415	0.012665	-0.011444	-1.0136	-0.13596	-0.003357	0.045776	0.026093	0.70221	0.068665	-0.31082	0.019836	1.1607	0.002289	0.042419	0.1033	-0.002136	-0.024414
20.717	-0.004883	0.32516	0.025482	0.009003	0.002441	-0.014343	0.093231	0.016785	-0.009766	0.000458	0.03006	0.014191	0.023041	0.019226	-0.54199	0.001831	-0.031281	-1.1697	-0.13428	-0.044098	-0.35126	0.17685	0.62332	-0.032501	-0.26886	-0.02182	0.71884	0.010529	0.080566	-0.25955	0.003357	-0.02243
20.718	-0.009918	0.42023	0.071716	0.008087	0.005188	-0.017242	0.1622	0.021515	-0.031738	-0.007172	-0.33966	0.018616	0	0.071106	-0.38238	-0.01236	-0.043793	-1.3162	0.024109	-0.070038	-0.49194	0.13794	0.69611	-0.097351	-0.25726	-0.061951	-0.66299	0.067749	0.47546	0.51346	0.002594	-0.000916
20.719	-0.007782	0.44495	0.070496	-0.011444	0.000153	-0.02655	0.15213	0.07019	-0.036926	-0.007782	0.017853	0.015411	-0.088501	0.035095	-0.092163	-0.006561	-0.079651	-1.458	-0.15961	-0.047607	-0.40009	0.051117	0.65735	-0.080109	0.10574	-0.054626	-0.98572	0.015106	0.58014	1.2889	0.005341	-0.002441
20.72	-0.00473	0.48889	0.022736	-0.021973	-0.001984	-0.031433	0.18463	0.018311	-0.012054	0.014954	0.1004	0.006104	-0.094299	-0.011292	-0.12528	0.000305	-0.05722	-1.6141	-0.18051	-0.001678	0.25269	-0.11749	0.23041	-0.17242	0.38971	-0.084839	-0.58899	0.006714	0.3273	1.7738	0.004425	-0.003357
20.721	-0.001068	0.51804	0.003357	-0.012207	0.00824	-0.020142	0.25162	0.011902	-0.005035	0.041199	-0.016632	0.013733	-0.12268	-0.014648	0.02182	0.008087	-0.059204	-1.7465	-0.041504	-0.040436	0.30563	-0.046082	-0.10071	-0.10986	0.21988	-0.11627	0.1294	-0.024109	0.061035	1.4435	0.008087	-0.01236
20.722	0.002747	0.48675	-0.030975	-0.006256	0.003967	-0.016785	0.34805	0.005035	-0.018005	0.018311	-0.16388	0.006256	-0.035553	0.021515	-0.12238	0.003815	-0.029602	-1.981	-0.38055	-0.023193	-0.045929	0.00061	-0.06073	0.053864	0.061798	-0.074158	0.18005	-0.035858	0.16556	0.55435	0.000916	-0.013885
20.723	0.005798	0.52994	-0.07309	0.008087	-0.007935	-0.032654	0.4007	0.011444	-0.007629	-0.015259	-0.2713	0.016022	0.046234	-0.013885	-0.077362	0.010986	-0.005798	-2.161	-0.91812	-0.059052	-0.27237	0.027313	0.18707	0.13382	-0.23392	0.085602	-0.078888	-0.052338	0.35904	-0.383	-0.00061	-0.014648
20.724	0.005341	0.53757	-0.026855	-0.029449	0.007629	-0.025024	0.43411	0.008545	-0.003357	0.020447	-0.079651	0.014191	0.009308	-0.12955	0.19653	0.010986	0.005798	-2.2922	-1.0744	-0.060883	-0.25314	-0.040741	0.27802	0.22919	-0.49622	0.061188	0.17746	-0.069275	0.22339	-1.2996	0.001373	-0.020905
20.725	0.00351	0.57892	0.00885	-0.00473	0.010376	-0.030212	0.40802	0.015411	-0.003357	0.058746	0.028687	0.006714	-0.1355	-0.13336	0.48004	0.009308	-0.034485	-2.2678	-0.85938	-0.072937	0.10651	0.10376	0.35797	0.31189	-0.62332	0.013733	-0.019989	-0.017242	-0.066833	-1.3255	0.002594	-0.02533
20.726	0.003815	0.6192	-0.018921	0.011292	0.007019	-0.024567	0.40756	0.010529	0.005951	0.061798	0.11276	0.009918	-0.20721	-0.022888	0.7373	0.013733	-0.03418	-2.2505	-0.69366	-0.02655	0.31021	0.082092	0.39124	0.27725	-0.28931	0.054016	-0.24078	0.071869	-0.38711	-0.65384	0.005646	-0.027924
20.727	0.006409	0.62775	-0.030975	0.023346	0.006256	-0.035706	0.37415	0.006714	0.004425	0.045471	0.076904	0.012054	-0.18509	0.11643	0.45532	0.015717	0.003357	-2.2009	-0.62637	0.014191	0.3009	-0.004425	0.3389	0.18021	-0.018616	0.097198	-0.39261	-0.019073	-0.3421	0.08194	-0.002594	-0.022125
20.728	0.003662	0.68634	-0.044861	-0.004883	0.008087	-0.035706	0.25024	0.000916	0.009003	0.027466	0.12344	0.010834	-0.11475	0.10025	0.36575	0.015717	0.005341	-2.2154	-0.12589	0.080109	0.24704	-0.18295	0.26337	0.088806	-0.029755	0.099487	-0.39597	-0.014648	-0.15396	0.67596	0.000916	-0.014801
20.729	-0.004425	0.74844	-0.012817	-0.031738	0.01297	-0.055847	0.14755	0.000916	0.026703	0.016327	0.029755	0.00885	-0.046234	0.14267	-0.15595	0.018921	0.018616	-2.1439	0.29175	0.072327	0.13046	-0.32059	0.29709	0.037842	-0.083923	-0.024567	-0.33997	-0.001068	0.24658	1.1913	0.001526	0.003967
20.73	-0.001526	0.80048	-0.011749	-0.021362	0.009613	-0.042572	0.14969	-0.004883	0.019531	0.019073	-0.13092	0.005646	-0.065155	0.16602	-0.19684	0.029144	-0.016022	-2.0149	0.019836	0.058746	0.010529	-0.58029	0.25345	0.027618	-0.07309	-0.20935	-0.13473	-0.030518	0.52704	1.2436	0.000763	-0.004578
20.731	-0.003815	0.8168	-0.04364	-0.007324	0.009308	-0.031128	0.14664	0.004272	0.030212	0.03952	-0.25665	0.007477	-0.055389	0.20233	-0.075684	0.006714	-0.061493	-1.9347	-0.31845	-0.005035	0.061798	-0.97931	0.15701	0.031891	-0.083008	-0.15732	-0.0737	-0.073853	0.4422	0.57693	-0.007629	-0.016022
20.732	0.000916	0.85815	0.001984	-0.009308	0.011749	-0.033417	0.1088	-0.001678	0.031891	0.036011	-0.27664	0.004883	-0.041962	0.23025	0.3006	0.012817	-0.10834	-1.8335	-0.37827	-0.18723	-0.22125	-0.91126	0.14618	0.060272	-0.083313	-0.12268	-0.051422	-0.19562	0.23804	-0.049286	-0.001068	-0.012207
20.733	-0.005341	0.88608	-0.015106	-0.016937	0.01236	-0.031891	0.1181	0.007172	0.052032	0.046997	-0.2121	0.002289	-0.11078	0.16342	0.26764	0.000153	-0.1062	-1.7038	-0.31906	-0.18158	-0.10696	-0.95642	-0.076447	0.056305	0.027618	-0.12726	0.053253	-0.20767	0.08316	-0.47974	-0.000153	-0.018311
20.734	0.000153	0.91248	-0.021973	-0.020294	0.012817	-0.033722	0.13321	0.002441	0.060883	0.050354	-0.11124	0.005646	-0.15305	0.084534	-0.12665	0.002441	-0.078125	-1.5298	-0.19547	-0.074768	0.12848	-0.7695	-0.063629	0.24658	0.17014	-0.13687	-0.034637	0.083771	-0.39963	-0.5864	-0.000153	-0.020447
20.735	-0.000305	0.94162	-0.016937	-0.00412	0.016937	-0.027161	0.19928	0.006409	0.063934	0.041199	0.085602	-0.000305	-0.14938	0.094147	-0.34912	0.01297	-0.048218	-1.335	-0.3154	0.035858	0.11124	-0.24567	0.11261	0.14374	0.06546	-0.094757	0.081635	0.38223	-0.71579	-0.4689	0.000305	-0.015411
20.736	-0.003967	0.9346	-0.015106	0.026245	0.014343	-0.022583	0.2623	0.003815	0.058441	0.06424	0.14969	-0.002899	-0.11292	0.070801	-0.23438	0.012207	-0.00946	-1.1603	-0.1181	0.1326	0.005646	-0.17822	0.10635	0.006866	0.13184	-0.007019	0.3421	0.13107	-0.3302	0.21942	-0.000916	-0.018616
20.737	0.004425	0.9314	-0.033875	-0.00061	0.006714	-0.019989	0.34576	0.012207	0.074921	0.053253	0.033264	-0.001984	0.00412	0.012817	-0.15167	0.010223	-0.012665	-0.94925	0.10162	0.15381	-0.017853	0.10986	0.16464	0.019226	0.086975	0.18417	0.53421	-0.09964	0.14908	0.26977	0.002441	-0.009766
20.738	0.001678	0.88531	-0.076904	-0.008392	0.015106	-0.026703	0.41046	0.005646	0.077209	0.067139	-0.064545	0.000153	0.051117	-0.002136	-0.11597	0.003967	-0.013428	-0.73166	0.010376	-0.003357	-0.009918	0.3418	0.14252	0.19028	0.082245	0.13992	0.41534	-0.006866	-0.003204	-0.03418	-0.000916	0.001068
20.739	-0.000763	0.86105	-0.088654	0.00351	0.017395	-0.020599	0.4332	0.004272	0.080414	0.046539	-0.016785	-0.003204	0.021057	0.058594	0.020447	0.013275	-0.021515	-0.56412	-0.27695	0.071106	-0.03891	0.70236	0.1181	0.17212	0.096436	0.10819	0.10056	-0.002747	-0.39658	0.009155	0.006409	0.005646
20.74	-0.000153	0.8226	-0.10208	-0.007629	0.01358	-0.021667	0.43976	0.002594	0.08728	0.030823	0.12009	0.000763	0.010681	0.026093	-0.094757	-0.001984	-0.014343	-0.38055	-0.18906	0.21683	0.019531	0.59967	0.071106	-0.009613	0.098114	0.12207	0.035095	-0.004425	-0.53085	-0.15991	-0.000153	-0.005798
20.741	0.008545	0.80139	-0.089111	0.007782	0.013123	-0.018005	0.43366	0.008392	0.077515	0.029602	0.11139	-0.002136	0.009155	0.016937	0.024414	-0.007477	-0.020447	-0.16296	-0.16083	0.32761	0.06073	0.42145	0.02121	-0.12711	0.080109	0.089569	-0.090027	0.002899	-0.40344	0.14099	-0.000153	-0.003052
20.742	0.000916	0.76431	-0.09491	0.007629	0.014038	-0.037231	0.45578	0.00824	0.06424	0.037842	0.11627	-0.011139	-0.034027	0.12116	0.004883	-0.006561	0.025177	0.007935	-0.19043	0.26566	-0.027771	-0.097809	0.025635	-0.24124	0.056915	0.078583	-0.004272	-0.011139	0.33585	0.041199	-0.002594	0.009613
20.743	0.006104	0.73593	-0.10056	-0.006714	0.014038	-0.038757	0.48889	0.00412	0.066071	0.072479	0.036621	0.000305	-0.08606	0.2002	-0.016937	-0.012817	0.034027	0.17548	-0.25757	0.11276	-0.14023	-0.33493	-0.011444	-0.13473	0.030975	0.072021	-0.22232	-0.026855	0.616	-0.23148	-0.000458	0.002899
20.744	0.001831	0.69458	-0.086823	-0.002441	0.015564	-0.03418	0.466	0.002899	0.065002	0.062408	0.015106	-0.001068	-0.075989	0.19623	0.12222	-0.014038	0.050964	0.28885	-0.37643	0.020905	-0.092316	-0.33371	-0.020142	-0.04837	0.046387	0.068665	-0.78522	-0.012665	0.6015	-0.4393	-0.000458	0.003815
20.745	0.009308	0.68451	-0.11261	0.036011	0.011749	-0.031281	0.47684	0.001526	0.04425	0.039215	0.047607	0.001678	-0.014191	0.24765	0.26672	-0.005798	0.047455	0.43976	-0.53619	-0.039215	0.015411	-0.17792	-0.016785	0.018311	0.15411	0.055542	-1.4978	-0.023346	0.44403	-0.3717	0	-0.003052
20.746	0.005951	0.57968	-0.11307	0.014038	0.011139	-0.010223	0.44373	0.00885	0.035248	0.031586	0.082855	-0.001678	-0.053558	0.23666	0.41458	0.01297	0.012817	0.69504	-0.54321	-0.029602	-0.040436	0.011444	0.050507	0.12772	0.22812	0.029449	-0.62836	-0.028534	0.10223	-0.12497	0.000916	0.000458
20.747	0.002747	0.40237	-0.11505	-0.002747	0.002441	-0.041809	0.44205	0.011139	0.00885	0.033417	0.045013	0.004578	-0.098419	0.21439	0.10346	0.014191	0.032196	1.0165	-0.31448	-0.098877	-0.15106	0.13412	0.067139	0.15106	0.12482	0.026398	0.088196	-0.024414	-0.029144	-0.019379	-0.005798	0.005035
20.748	0.007324	0.26001	-0.10544	-0.00473	0.001984	-0.024567	0.38315	0.006104	0.006256	0.025787	-0.004578	0.010376	-0.06073	0.19989	0.054169	0.007019	-0.023956	1.2511	0.46112	-0.15335	0.13565	0.18478	0.18326	0.02655	-0.001221	0.026093	0.35629	-0.021057	-0.059509	-0.061798	0.005341	0.005646
